<svg xmlns="http://www.w3.org/2000/svg" xmlns:xlink="http://www.w3.org/1999/xlink" width="500" zoomAndPan="magnify" viewBox="0 0 375 374.999991" height="500" preserveAspectRatio="xMidYMid meet" version="1.0"><defs><filter x="0%" y="0%" width="100%" height="100%" id="31e30f342f"><feColorMatrix values="0 0 0 0 1 0 0 0 0 1 0 0 0 0 1 0 0 0 1 0" color-interpolation-filters="sRGB"/></filter><g/><clipPath id="a486a788d6"><path d="M 0 -86.515625 L 117.496094 -86.515625 L 117.496094 -1.605469 L 0 -1.605469 Z M 0 -86.515625 " clip-rule="nonzero"/></clipPath><mask id="fe4ace4128"><g><g filter="url(#31e30f342f)"><g><g><g clip-path="url(#a486a788d6)"><path fill="#009b3a" d="M 117.496094 -14.6875 C 117.496094 -11.015625 116.234375 -7.917969 113.710938 -5.394531 C 111.1875 -2.867188 108.089844 -1.605469 104.417969 -1.605469 L 13.082031 -1.605469 C 9.410156 -1.605469 6.3125 -2.867188 3.785156 -5.394531 C 1.261719 -7.917969 0 -11.015625 0 -14.6875 L 0 -73.4375 C 0 -77.109375 1.261719 -80.207031 3.785156 -82.730469 C 6.3125 -85.253906 9.410156 -86.515625 13.082031 -86.515625 L 104.417969 -86.515625 C 108.089844 -86.515625 111.1875 -85.253906 113.710938 -82.730469 C 116.234375 -80.207031 117.496094 -77.109375 117.496094 -73.4375 Z M 117.496094 -14.6875 " fill-opacity="1" fill-rule="nonzero"/></g><path fill="#002776" d="M 43.832031 -29.375 C 39.703125 -33.503906 37.636719 -38.476562 37.636719 -44.292969 C 37.636719 -50.105469 39.703125 -55.078125 43.832031 -59.207031 C 47.964844 -63.339844 52.933594 -65.402344 58.75 -65.402344 C 61.503906 -65.402344 64.179688 -64.832031 66.78125 -63.683594 C 69.382812 -62.535156 71.636719 -61.042969 73.550781 -59.207031 C 75.464844 -57.371094 76.992188 -55.152344 78.140625 -52.550781 C 79.289062 -49.953125 79.863281 -47.199219 79.863281 -44.292969 C 79.863281 -38.476562 77.796875 -33.503906 73.664062 -29.375 C 69.535156 -25.242188 64.5625 -23.179688 58.75 -23.179688 C 52.933594 -23.179688 47.964844 -25.242188 43.832031 -29.375 Z M 43.832031 -29.375 " fill-opacity="1" fill-rule="nonzero"/><path fill="#3b88c3" d="M 61.960938 -36.71875 L 65.175781 -36.71875 L 65.175781 -33.503906 L 61.960938 -33.503906 Z M 61.960938 -36.71875 " fill-opacity="1" fill-rule="nonzero"/></g></g></g></g></mask></defs><g fill="#000000" fill-opacity="1"><g transform="translate(128.735952, 231.564403)"><g><rect x="-1.1" width="1.2" height="1.2" y="-1.1" mask="url(#fe4ace4128)"/></g></g></g></svg>