<svg xmlns="http://www.w3.org/2000/svg" xmlns:xlink="http://www.w3.org/1999/xlink" width="500" zoomAndPan="magnify" viewBox="0 0 375 374.999991" height="500" preserveAspectRatio="xMidYMid meet" version="1.0"><defs><filter x="0%" y="0%" width="100%" height="100%" id="bfa0b7b192"><feColorMatrix values="0 0 0 0 1 0 0 0 0 1 0 0 0 0 1 0 0 0 1 0" color-interpolation-filters="sRGB"/></filter><g/><clipPath id="f57b2b7a0a"><path d="M 0 -96.433594 L 130.964844 -96.433594 L 130.964844 -1.789062 L 0 -1.789062 Z M 0 -96.433594 " clip-rule="nonzero"/></clipPath><clipPath id="015f158e7a"><path d="M 0 -96.433594 L 66 -96.433594 L 66 -45 L 0 -45 Z M 0 -96.433594 " clip-rule="nonzero"/></clipPath><mask id="3da2873b18"><g><g filter="url(#bfa0b7b192)"><g><g><g clip-path="url(#f57b2b7a0a)"><path fill="#b22334" d="M 128.917969 -89.015625 L 65.480469 -89.015625 L 65.480469 -96.433594 L 116.382812 -96.433594 C 122.011719 -96.433594 126.1875 -93.960938 128.917969 -89.015625 Z M 0 -23.53125 L 130.964844 -23.53125 L 130.964844 -16.371094 L 0 -16.371094 Z M 65.480469 -52.691406 L 130.964844 -52.691406 L 130.964844 -45.53125 L 65.480469 -45.53125 Z M 65.480469 -67.273438 L 130.964844 -67.273438 L 130.964844 -60.109375 L 65.480469 -60.109375 Z M 0 -38.113281 L 130.964844 -38.113281 L 130.964844 -30.949219 L 0 -30.949219 Z M 14.578125 -1.789062 C 8.953125 -1.789062 4.773438 -4.261719 2.046875 -9.207031 L 128.917969 -9.207031 C 126.1875 -4.261719 122.011719 -1.789062 116.382812 -1.789062 Z M 65.480469 -81.851562 L 130.964844 -81.851562 L 130.964844 -74.691406 L 65.480469 -74.691406 Z M 65.480469 -81.851562 " fill-opacity="1" fill-rule="nonzero"/></g><g clip-path="url(#015f158e7a)"><path fill="#3c3b6e" d="M 65.480469 -96.433594 L 65.480469 -45.53125 L 0 -45.53125 L 0 -81.851562 C 0 -85.945312 1.40625 -89.398438 4.21875 -92.210938 C 7.035156 -95.023438 10.488281 -96.433594 14.578125 -96.433594 Z M 65.480469 -96.433594 " fill-opacity="1" fill-rule="nonzero"/></g></g></g></g></g></mask></defs><rect x="-37.5" width="450" fill="#ffffff" y="-37.499999" height="449.999989" fill-opacity="1"/><rect x="-37.5" width="450" fill="#ffffff" y="-37.499999" height="449.999989" fill-opacity="1"/><g fill="#000000" fill-opacity="1"><g transform="translate(122.001377, 236.614349)"><g><rect x="-1.1" width="1.2" height="1.2" y="-1.1" mask="url(#3da2873b18)"/></g></g></g></svg>